<svg width="45" height="36" viewBox="0 0 45 36" fill="none" xmlns="http://www.w3.org/2000/svg">
<path d="M39.1334 13H20.8666C20.6367 13 20.4163 12.8946 20.2538 12.7071C20.0913 12.5196 20 12.2652 20 12C20 11.7348 20.0913 11.4804 20.2538 11.2929C20.4163 11.1054 20.6367 11 20.8666 11H39.1334C39.3633 11 39.5837 11.1054 39.7462 11.2929C39.9087 11.4804 40 11.7348 40 12C40 12.2652 39.9087 12.5196 39.7462 12.7071C39.5837 12.8946 39.3633 13 39.1334 13Z" fill="black"/>
<path d="M33.1088 18H20.8912C20.6548 18 20.4281 17.8946 20.261 17.7071C20.0939 17.5196 20 17.2652 20 17C20 16.7348 20.0939 16.4804 20.261 16.2929C20.4281 16.1054 20.6548 16 20.8912 16H33.1088C33.3452 16 33.5719 16.1054 33.739 16.2929C33.9061 16.4804 34 16.7348 34 17C34 17.2652 33.9061 17.5196 33.739 17.7071C33.5719 17.8946 33.3452 18 33.1088 18Z" fill="black"/>
<path d="M27.913 24H21.087C20.7987 24 20.5222 23.8946 20.3184 23.7071C20.1145 23.5196 20 23.2652 20 23C20 22.7348 20.1145 22.4804 20.3184 22.2929C20.5222 22.1054 20.7987 22 21.087 22H27.913C28.2013 22 28.4778 22.1054 28.6816 22.2929C28.8855 22.4804 29 22.7348 29 23C29 23.2652 28.8855 23.5196 28.6816 23.7071C28.4778 23.8946 28.2013 24 27.913 24Z" fill="black"/>
<path d="M12.0138 23.7844C12.1405 23.9225 12.3124 24 12.4917 24C12.6709 24 12.8428 23.9225 12.9696 23.7844L16.7936 19.6194C16.8582 19.5515 16.9097 19.4702 16.9451 19.3804C16.9805 19.2906 16.9992 19.194 17 19.0962C17.0008 18.9985 16.9837 18.9015 16.9497 18.811C16.9157 18.7205 16.8655 18.6383 16.802 18.5692C16.7385 18.5001 16.6631 18.4454 16.58 18.4084C16.4969 18.3714 16.4079 18.3527 16.3181 18.3536C16.2284 18.3544 16.1397 18.3747 16.0572 18.4133C15.9747 18.4519 15.9002 18.508 15.8378 18.5783L13.1677 21.4866L13.1677 11.7363C13.1677 11.541 13.0965 11.3537 12.9697 11.2156C12.8429 11.0776 12.671 11 12.4917 11C12.3124 11 12.1405 11.0776 12.0137 11.2156C11.8869 11.3537 11.8157 11.541 11.8157 11.7363L11.8157 21.4866L9.14559 18.5783C9.0181 18.4442 8.84735 18.37 8.67011 18.3717C8.49287 18.3734 8.32332 18.4508 8.19799 18.5873C8.07266 18.7238 8.00157 18.9085 8.00002 19.1015C7.99848 19.2946 8.06662 19.4805 8.18975 19.6194L12.0138 23.7844Z" fill="black"/>
</svg>
